<svg width="403" height="320" viewBox="0 0 403 320" fill="none" xmlns="http://www.w3.org/2000/svg">
<path d="M138.943 58.971C149.443 56.1642 160.538 63.532 163.729 75.4503C166.921 87.3687 160.995 99.2976 150.507 102.104C140.018 104.911 128.912 97.5433 125.721 85.625C122.529 73.7067 128.455 61.7778 138.943 58.971Z" fill="#72729E"/>
<path d="M44.5 318.411C44.5 318.411 81.787 293.361 97.0096 255.586C113.615 214.409 99.1371 160.399 172.92 141.134C206.355 134.638 231.109 134.149 270.277 154.87C307.647 178.792 317.522 258.022 327 318.411C241 318.411 44.5 318.411 44.5 318.411Z" fill="#AD0400"/>
<path d="M175.048 125.186C175.048 125.186 174.793 149.565 175.048 157.082C192.781 172.307 215.844 159.283 219.726 157.082C219.312 151.17 213.344 62.4582 213.344 62.4582L175.048 125.186Z" fill="#F3E9E9"/>
<path d="M172.92 14.6148C172.92 14.6148 148.007 7.45957 139.943 34.2625C131.88 61.0654 139.231 88.8784 147.39 104.178C152.709 114.172 164.57 131.108 175.92 132.884C182.09 133.819 194.27 124.176 200.195 119.339C216.865 105.751 210.216 89.3994 211.206 75.7481C212.195 62.0967 213.333 56.0791 213.333 56.0791C213.333 56.0791 208.993 14.551 172.92 14.6148Z" fill="white"/>
<path d="M206.478 71.9562C206.478 71.9562 194.468 46.344 182.011 46.4397C173.044 46.5141 162.055 46.9606 150.098 54.9452C137.205 63.557 119.249 62.8659 117.121 43.2501C115.302 26.1754 134.28 22.4861 152.226 8.16497C169.895 -5.93288 210.137 1.11605 218.18 24.1128C225.413 44.7811 222.892 66.1512 217.116 84.7144C213.02 97.8235 206.478 71.9562 206.478 71.9562Z" fill="#090F5A"/>
<path d="M211.216 53.9527C211.216 53.9527 203.897 31.4556 199.515 26.3098C193.036 18.7187 180 5.91058 163.5 7.17247C147 8.43436 149 10.8387 143 14.4106C140.553 15.8671 141.128 7.53635 150.5 4.41058C156.423 2.4201 162.775 1.24825 168.999 1.79716C175.224 2.34607 181.267 4.1762 186.749 7.17247C200.578 14.4766 211.982 29.8077 215.471 51.8263C216.461 55.9833 211.216 53.9527 211.216 53.9527Z" fill="white"/>
<path d="M223 87.9106L227 318.911" stroke="white" stroke-width="2"/>
<path d="M143.135 103.391C143.135 103.391 150.4 156.231 188.739 184.278C227.077 212.325 225.013 230.431 225.013 230.431" stroke="white" stroke-width="2"/>
<path d="M224.723 227.911C225.711 227.911 226.658 228.303 227.356 229C228.054 229.698 228.446 230.645 228.446 231.632V241.2C228.446 242.187 228.054 243.134 227.356 243.832C226.658 244.53 225.711 244.922 224.723 244.922C223.736 244.922 222.789 244.53 222.091 243.832C221.392 243.134 221 242.187 221 241.2V231.632C221 230.645 221.392 229.698 222.091 229C222.789 228.303 223.736 227.911 224.723 227.911Z" fill="white"/>
<path d="M215.365 44.5541C226.152 43.2039 236.13 51.9964 237.704 64.2762C239.279 76.556 231.726 87.5175 220.939 88.8677C210.152 90.218 200.174 81.4254 198.6 69.1456C197.025 56.8658 204.578 45.9044 215.365 44.5541Z" fill="#B4B2CE"/>
<path d="M218.982 57.2061C223.928 56.6 228.556 60.5976 229.205 66.1368C229.853 71.676 226.46 76.673 221.513 77.279C216.567 77.885 211.94 73.8875 211.291 68.3483C210.642 62.8091 214.035 57.8121 218.982 57.2061Z" fill="#72729E"/>
<path d="M173.793 71.1338C174.931 70.8255 176.409 72.6435 177.101 75.1952C177.792 77.7468 177.441 80.0646 176.303 80.3729C175.165 80.6812 173.686 78.8632 172.995 76.3115C172.303 73.7599 172.654 71.4421 173.793 71.1338Z" fill="#090F5A"/>
<path d="M146.135 76.4497C147.273 76.1414 148.752 77.9595 149.443 80.5111C150.134 83.0628 149.783 85.3805 148.645 85.6888C147.507 85.9972 146.028 84.1791 145.337 81.6275C144.645 79.0758 144.996 76.7581 146.135 76.4497Z" fill="#090F5A"/>
<path d="M158.283 80.5005C158.283 80.5005 155.358 95.3851 158.964 96.5227C159.989 96.8364 161.086 96.8204 162.102 96.4771C163.117 96.1337 163.999 95.4802 164.623 94.6089C164.623 94.6089 160.389 79.9264 158.283 80.5005Z" fill="#FFBDBB"/>
<path d="M136.22 311.244H184.09C185.077 311.244 186.024 311.636 186.723 312.334C187.421 313.032 187.813 313.978 187.813 314.965C187.813 315.952 187.421 316.898 186.723 317.596C186.024 318.294 185.077 318.686 184.09 318.686H136.22C135.233 318.686 134.286 318.294 133.588 317.596C132.889 316.898 132.497 315.952 132.497 314.965C132.497 313.978 132.889 313.032 133.588 312.334C134.286 311.636 135.233 311.244 136.22 311.244Z" fill="#D1BFBF"/>
<path d="M10.6951 215.025H144.73C147.552 215.025 150.257 216.146 152.252 218.139C154.247 220.133 155.368 222.838 155.368 225.657L170.261 308.586C170.261 311.406 169.14 314.11 167.145 316.104C165.15 318.098 162.445 319.218 159.623 319.218H25.5879C22.7666 319.218 20.0609 318.098 18.0659 316.104C16.0709 314.11 14.9502 311.406 14.9502 308.586L0.057373 225.657C0.057373 222.838 1.17812 220.133 3.17308 218.139C5.16804 216.146 7.8738 215.025 10.6951 215.025Z" fill="white"/>
<path d="M77.7765 257.659C80.9678 257.16 84.1591 260.764 84.9462 265.697C85.7334 270.63 83.7442 275.032 80.5529 275.521C77.3616 276.01 74.1703 272.416 73.3831 267.483C72.5959 262.55 74.5852 258.159 77.7765 257.659Z" fill="#D1BFBF"/>
<path d="M238.874 253.832C228.815 254.772 218.852 256.55 209.089 259.148C201.323 261.37 190.59 263.305 188.802 265.208C184.228 270.258 178.963 278.019 175.048 283.601C172.08 287.556 176.601 288.534 181.356 283.463C183.005 281.698 188.175 275.404 191.866 272.831C197.687 268.978 204.3 266.481 211.216 265.527C223.364 264.453 239.066 272.331 238.874 253.832Z" fill="white"/>
<path d="M187.388 279.571C187.388 279.571 175.027 300.729 177.175 301.686C181.665 303.695 188.356 287.864 191.004 285.738C194.823 282.602 198.738 278.189 203.77 276.169C209.397 273.905 211.216 275.106 211.216 275.106L232.492 261.285L209.089 260.221L187.388 279.571Z" fill="white"/>
<path d="M200.579 283.601C200.579 283.601 186.324 304.546 181.431 301.675C180.367 300.431 191.005 281.262 196.323 278.285C201.642 275.308 225.981 267.834 225.981 267.834C234.087 269.482 202.11 283.909 200.579 283.601Z" fill="white"/>
<path d="M217.695 276.69C217.695 276.69 206.429 286.578 204.302 288.077C202.174 289.576 193.77 301.824 192.143 300.091C191.079 298.964 195.681 288.992 201 282.911C205 277.701 206.812 274.649 209.163 273.511C214.854 270.758 230.439 261.816 230.439 261.816L217.695 276.69Z" fill="white"/>
<path d="M211.216 281.475C211.216 281.475 220.79 280.699 237.811 271.906C244.193 268.589 250.576 270.354 254.831 271.906C254.831 266.526 254.831 252.769 254.831 252.769C254.831 252.769 242.151 253.747 228.237 254.895C214.323 256.043 212.28 271.906 212.28 271.906L211.216 281.475Z" fill="white"/>
<path d="M402.325 312.204H319V318.382H402.325V312.204Z" fill="#090F5A"/>
<path fill-rule="evenodd" clip-rule="evenodd" d="M334.614 258.911C334.614 258.911 334.614 309.218 361.198 309.231H361.208C369.858 309.227 375.693 303.898 379.629 296.711C385.892 296.095 390.969 293.374 394.511 289.83C398.306 286.033 400.494 281.113 400.201 276.693C399.991 273.501 398.874 271.057 397.148 269.292C395.46 267.565 393.367 266.669 391.477 266.208C390.033 265.857 388.631 265.74 387.464 265.725C387.792 261.595 387.792 258.911 387.792 258.911H361.208H361.198H334.614ZM386.963 270.725C386.223 276.826 384.821 284.401 382.167 291.214C385.827 290.301 388.795 288.476 390.974 286.296C394.032 283.236 395.386 279.651 395.212 277.023L395.212 277.021C395.071 274.881 394.372 273.604 393.573 272.787C392.736 271.931 391.594 271.383 390.293 271.066C389.129 270.783 387.942 270.71 386.963 270.725Z" fill="#090F5A"/>
<path d="M172.633 104.869C172.633 104.869 164.123 106.58 162.357 107.718C160.591 108.856 165.229 113.108 168.038 111.344C170.846 109.579 172.644 106.549 172.633 104.869Z" fill="#E0CDCD"/>
</svg>
